<svg xmlns="http://www.w3.org/2000/svg" width="44.996" height="44.996"><path d="M40.045 24.843c-.03-.27-.065-.553-.104-.836.96-.35 1.65-1.26 1.65-2.34V15.5c0-1.38-1.12-2.5-2.5-2.5H37.5V6.5C37.5 2.916 34.582 0 31 0H14c-3.585 0-6.5 2.916-6.5 6.5V13H5.914c-1.38 0-2.5 1.12-2.5 2.5v6.167c0 1.1.713 2.02 1.697 2.356l-.09.766c-1.37 1.15-2.25 2.92-2.25 4.91 0 2.79 1.74 5.16 4.14 5.98 3.03 5.66 9 9.3 15.63 9.3 6.63 0 12.62-3.66 15.64-9.33 2.37-.85 4.07-3.21 4.07-5.97 0-1.958-.85-3.706-2.19-4.86zM24.898 9.7l3.32.504c.373.057.684.32.8.68.118.36.022.755-.247 1.02l-.06.063-1.05 1.035-.7.695-.5.5-.07.07.21 1.234.35 2.08c.016.09.016.17.008.26-.004.06-.02.11-.035.17-.06.22-.182.42-.37.55-.172.13-.38.19-.586.19-.154 0-.312-.03-.46-.11L24.27 18l-.32-.162-1.45-.75-1.45.75-.32.165-1.22.63c-.34.173-.74.143-1.05-.08-.19-.136-.31-.333-.37-.55-.017-.054-.03-.11-.037-.165-.007-.084-.007-.17.007-.255l.34-2.08.205-1.24-.07-.07-.51-.51-.7-.69-1.047-1.038-.063-.06c-.27-.267-.37-.66-.25-1.02.115-.36.43-.625.8-.68l3.32-.507.295-.59 1.21-2.41c.34-.677 1.45-.677 1.79 0L24.6 9.11l.296.59zm11.32 22.306c-.263 0-.51-.06-.736-.162-1.834 5.32-6.935 9.152-12.955 9.152-6.024 0-11.13-3.84-12.96-9.17-.24.115-.505.18-.784.18-1.118 0-2.018-1.03-2.018-2.304 0-1.27.896-2.302 2.014-2.304.3.526.66 1.035 1.06 1.518-.38-1.284-.58-2.604-.58-3.915 0-.28.02-.55.04-.83h26.39c.02.28.04.55.04.84 0 1.32-.21 2.63-.58 3.92.4-.48.75-.99 1.06-1.52 1.11.01 2.01 1.04 2.01 2.31-.01 1.28-.91 2.31-2.02 2.31zm-15.968.056c0-.498 1.007-.9 2.248-.9 1.242 0 2.248.402 2.248.9 0 .496-1.006.896-2.248.896-1.24 0-2.248-.397-2.248-.896zm-3.856-3.44c-1.145 0-2.074-.93-2.074-2.072 0-1.143.93-2.073 2.074-2.073s2.072.932 2.072 2.073c0 1.143-.93 2.073-2.072 2.073zM30.68 26.55c0 1.144-.932 2.073-2.073 2.073-1.144 0-2.073-.93-2.073-2.073 0-1.143.93-2.073 2.073-2.073 1.14 0 2.072.93 2.072 2.073zm-2.782 9.852c.16.164.188.418.062.613-.094.147-.254.232-.424.232-.052 0-.104-.008-.156-.023 0 0-3.633-1.61-4.93-1.617-1.27-.006-4.846 1.535-4.846 1.535-.22.07-.46-.02-.578-.218-.12-.196-.09-.448.074-.612l2.582-2.584c.094-.095.222-.146.354-.146h4.917c.137 0 .267.057.36.15l2.585 2.67z"/></svg>